<mxfile host="app.diagrams.net" modified="2023-02-20T13:45:02.099Z" agent="5.0 (Windows NT 10.0; Win64; x64) AppleWebKit/537.36 (KHTML, like Gecko) Chrome/96.0.4664.45 Safari/537.36" version="20.7.4" etag="CYCOPgDBLEkJEOAZeW7g" type="github">
  <diagram id="EuwpJuRoBW0kCLNsrQOX" name="第 1 页">
    <mxGraphModel dx="1050" dy="548" grid="1" gridSize="10" guides="1" tooltips="1" connect="1" arrows="1" fold="1" page="1" pageScale="1" pageWidth="827" pageHeight="1169" math="0" shadow="0">
      <root>
        <mxCell id="0" />
        <mxCell id="1" parent="0" />
        <mxCell id="V87L4PToiZO6H6u3ghnI-4" style="rounded=0;orthogonalLoop=1;jettySize=auto;html=1;exitX=1;exitY=1;exitDx=0;exitDy=0;entryX=0;entryY=0;entryDx=0;entryDy=0;" edge="1" parent="1" source="V87L4PToiZO6H6u3ghnI-2" target="V87L4PToiZO6H6u3ghnI-3">
          <mxGeometry relative="1" as="geometry" />
        </mxCell>
        <mxCell id="V87L4PToiZO6H6u3ghnI-2" value="就绪" style="ellipse;whiteSpace=wrap;html=1;aspect=fixed;" vertex="1" parent="1">
          <mxGeometry x="340" y="100" width="50" height="50" as="geometry" />
        </mxCell>
        <mxCell id="V87L4PToiZO6H6u3ghnI-8" style="edgeStyle=none;rounded=0;orthogonalLoop=1;jettySize=auto;html=1;exitX=0;exitY=0.5;exitDx=0;exitDy=0;entryX=0.5;entryY=1;entryDx=0;entryDy=0;" edge="1" parent="1" source="V87L4PToiZO6H6u3ghnI-3" target="V87L4PToiZO6H6u3ghnI-2">
          <mxGeometry relative="1" as="geometry" />
        </mxCell>
        <mxCell id="V87L4PToiZO6H6u3ghnI-13" style="edgeStyle=none;rounded=0;orthogonalLoop=1;jettySize=auto;html=1;exitX=0;exitY=0.5;exitDx=0;exitDy=0;entryX=1;entryY=0.5;entryDx=0;entryDy=0;" edge="1" parent="1" source="V87L4PToiZO6H6u3ghnI-3" target="V87L4PToiZO6H6u3ghnI-10">
          <mxGeometry relative="1" as="geometry" />
        </mxCell>
        <mxCell id="V87L4PToiZO6H6u3ghnI-15" style="edgeStyle=none;rounded=0;orthogonalLoop=1;jettySize=auto;html=1;exitX=1;exitY=0.5;exitDx=0;exitDy=0;" edge="1" parent="1" source="V87L4PToiZO6H6u3ghnI-3">
          <mxGeometry relative="1" as="geometry">
            <mxPoint x="610" y="266" as="targetPoint" />
          </mxGeometry>
        </mxCell>
        <mxCell id="V87L4PToiZO6H6u3ghnI-3" value="执行" style="ellipse;whiteSpace=wrap;html=1;aspect=fixed;" vertex="1" parent="1">
          <mxGeometry x="450" y="240" width="51" height="51" as="geometry" />
        </mxCell>
        <mxCell id="V87L4PToiZO6H6u3ghnI-7" value="进程调度" style="text;html=1;align=center;verticalAlign=middle;resizable=0;points=[];autosize=1;strokeColor=none;fillColor=none;" vertex="1" parent="1">
          <mxGeometry x="415" y="160" width="70" height="30" as="geometry" />
        </mxCell>
        <mxCell id="V87L4PToiZO6H6u3ghnI-9" value="时间片完" style="text;html=1;align=center;verticalAlign=middle;resizable=0;points=[];autosize=1;strokeColor=none;fillColor=none;" vertex="1" parent="1">
          <mxGeometry x="345" y="190" width="70" height="30" as="geometry" />
        </mxCell>
        <mxCell id="V87L4PToiZO6H6u3ghnI-11" style="edgeStyle=none;rounded=0;orthogonalLoop=1;jettySize=auto;html=1;exitX=1;exitY=0;exitDx=0;exitDy=0;entryX=0.2;entryY=1;entryDx=0;entryDy=0;entryPerimeter=0;" edge="1" parent="1" source="V87L4PToiZO6H6u3ghnI-10" target="V87L4PToiZO6H6u3ghnI-2">
          <mxGeometry relative="1" as="geometry" />
        </mxCell>
        <mxCell id="V87L4PToiZO6H6u3ghnI-10" value="阻塞" style="ellipse;whiteSpace=wrap;html=1;aspect=fixed;" vertex="1" parent="1">
          <mxGeometry x="230" y="241" width="50" height="50" as="geometry" />
        </mxCell>
        <mxCell id="V87L4PToiZO6H6u3ghnI-12" value="IO完成" style="text;html=1;align=center;verticalAlign=middle;resizable=0;points=[];autosize=1;strokeColor=none;fillColor=none;" vertex="1" parent="1">
          <mxGeometry x="250" y="175" width="60" height="30" as="geometry" />
        </mxCell>
        <mxCell id="V87L4PToiZO6H6u3ghnI-14" value="IO请求&lt;br&gt;申请缓冲区失败&lt;br&gt;访问临界资源" style="text;html=1;align=center;verticalAlign=middle;resizable=0;points=[];autosize=1;strokeColor=none;fillColor=none;" vertex="1" parent="1">
          <mxGeometry x="305" y="236" width="110" height="60" as="geometry" />
        </mxCell>
        <mxCell id="V87L4PToiZO6H6u3ghnI-16" value="终止" style="text;html=1;align=center;verticalAlign=middle;resizable=0;points=[];autosize=1;strokeColor=none;fillColor=none;" vertex="1" parent="1">
          <mxGeometry x="515" y="235" width="50" height="30" as="geometry" />
        </mxCell>
      </root>
    </mxGraphModel>
  </diagram>
</mxfile>
